<svg id="Capa_1" enable-background="new 0 0 512 512" height="512" viewBox="0 0 512 512" width="512" xmlns="http://www.w3.org/2000/svg"><g><g><path d="m276.422 454.305 177.886-177.886-21.21-21.21-17.776 17.776-21.425-21.425c-24.569-24.568-60.549-33.777-93.9-24.036l-21.922 6.404 6.404-21.922c9.743-33.351.532-69.332-24.036-93.9l-21.425-21.425 17.776-17.776-21.21-21.21-177.888 177.885 21.21 21.21 17.776-17.776 21.425 21.425c18.092 18.092 42.372 27.856 67.234 27.856 8.9 0 17.875-1.251 26.667-3.819l21.922-6.404-6.404 21.922c-9.743 33.351-.532 69.332 24.036 93.9l21.425 21.425-17.776 17.776zm23.917-99.833 12.148-41.587 41.586-12.148c11.441-3.343 23.398-3.67 34.633-1.136l-89.226 89.226c-2.656-11.239-2.428-23.105.859-34.355zm-96.743-98.789c-22.831 6.669-47.461.365-64.279-16.454l-21.425-21.425 99.915-99.915 21.426 21.426c16.818 16.818 23.123 41.448 16.454 64.279l-11.776 40.313zm52.722 52.722 11.776-40.313 40.313-11.776c20.593-6.016 42.65-1.472 59.118 11.819-7.339.451-14.677 1.711-21.862 3.81l-57.361 16.757-16.756 57.36c-2.022 6.923-3.238 14.008-3.681 21.116-13.078-16.431-17.521-38.321-11.547-58.773z"/></g><g><path d="m33.379 217.155c7.98-45.988 29.71-87.808 62.841-120.938 38.67-38.67 89.979-61.992 144.475-65.668 48.952-3.297 97.465 9.343 138.197 35.769-1.6 4.678-2.443 9.636-2.443 14.726 0 12.119 4.719 23.513 13.289 32.083 8.845 8.845 20.464 13.268 32.083 13.268s23.238-4.423 32.083-13.268c8.57-8.57 13.289-19.963 13.289-32.083s-4.719-23.514-13.289-32.083c-8.57-8.57-19.963-13.29-32.083-13.29-8.73 0-17.076 2.461-24.269 7.033-46.63-30.99-102.493-45.885-158.876-42.084-61.739 4.166-119.863 30.584-163.666 74.388-37.526 37.526-62.142 84.906-71.185 137.019-8.839 50.939-2.289 102.66 18.942 149.573l27.327-12.367c-18.743-41.415-24.522-87.086-16.715-132.078zm388.137-152.74c9.182 0 16.625 7.443 16.625 16.625s-7.443 16.625-16.625 16.625-16.625-7.443-16.625-16.625 7.443-16.625 16.625-16.625z"/><path d="m490.839 154.015-27.516 11.941c17.848 41.128 23.036 86.282 15.002 130.581-8.219 45.315-29.845 86.549-62.54 119.245-38.629 38.629-89.881 61.947-144.315 65.658-5.16.352-10.307.526-15.449.526-44.311-.002-87.639-12.982-124.462-37.308 5.607-15.959 2.043-34.449-10.695-47.187-8.57-8.57-19.963-13.289-32.083-13.289s-23.514 4.719-32.083 13.289c-17.691 17.69-17.691 46.475 0 64.165 8.57 8.57 19.963 13.289 32.083 13.289 8.584 0 16.799-2.379 23.909-6.805 42.228 28.576 92.205 43.842 143.333 43.842 5.817 0 11.65-.198 17.487-.596 61.668-4.203 119.728-30.616 163.484-74.374 37.034-37.034 61.531-83.751 70.844-135.102 9.096-50.155 3.218-101.289-16.999-147.875zm-402.059 292.162c-9.182 0-16.625-7.443-16.625-16.625s7.443-16.625 16.625-16.625 16.625 7.443 16.625 16.625-7.443 16.625-16.625 16.625z"/></g></g></svg>